<?xml version="1.0" encoding="UTF-8"?>
<svg id="Layer_1" data-name="Layer 1" xmlns="http://www.w3.org/2000/svg" viewBox="0 0 1746.81 3739.26">
  <defs>
    <style>
      .cls-1 {
        fill: #03eca1;
      }

      .cls-2 {
        fill: #462d44;
      }

      .cls-3 {
        fill: #a597a3;
      }

      .cls-4 {
        fill: #f3f2f1;
      }

      .cls-5 {
        fill: #231f20;
      }

      .cls-6 {
        fill: #1d1d1b;
      }

      .cls-7 {
        fill: #fdfcfc;
      }

      .cls-8 {
        fill: #e0dfde;
      }
    </style>
  </defs>
  <path class="cls-5" d="M1731.17,1324.88c3.27,134.94.23,270.7.23,405.71l-.03,794.61-.03,491.35.14,148.72c.09,33.81,1.29,68.11-1.28,101.85-.35,4.47-.8,8.93-1.37,13.38-.57,4.45-1.24,8.89-2.03,13.31-.79,4.41-1.68,8.81-2.68,13.18s-2.11,8.72-3.32,13.04c-1.21,4.32-2.53,8.61-3.95,12.86-1.43,4.25-2.95,8.47-4.58,12.65-1.63,4.18-3.37,8.32-5.2,12.42-1.83,4.09-3.76,8.14-5.79,12.14-1.03,2.03-2.09,4.06-3.18,6.07-1.08,2.01-2.19,4-3.32,5.99-1.13,1.98-2.29,3.95-3.48,5.9-1.18,1.95-2.39,3.89-3.62,5.82-1.23,1.92-2.48,3.83-3.76,5.72-1.28,1.89-2.58,3.77-3.91,5.63-1.32,1.86-2.67,3.7-4.04,5.53-1.37,1.83-2.77,3.64-4.18,5.43-1.41,1.79-2.85,3.57-4.31,5.32s-2.94,3.49-4.45,5.21c-1.5,1.72-3.02,3.42-4.57,5.1-1.55,1.69-3.11,3.35-4.7,4.99-1.59,1.64-3.19,3.26-4.82,4.87-1.63,1.6-3.27,3.18-4.94,4.74-1.67,1.56-3.35,3.1-5.06,4.62s-3.43,3.02-5.17,4.5c-1.74,1.47-3.5,2.93-5.28,4.36-1.78,1.43-3.58,2.84-5.39,4.23-1.81,1.39-3.64,2.76-5.49,4.1-1.85,1.34-3.71,2.66-5.59,3.96-1.88,1.29-3.78,2.57-5.69,3.82-1.91,1.25-3.84,2.47-5.78,3.67-1.95,1.2-3.9,2.38-5.87,3.53-1.97,1.15-3.96,2.28-5.96,3.38-2,1.11-4.01,2.19-6.04,3.24-2.03,1.05-4.07,2.08-6.12,3.08s-4.12,1.98-6.19,2.93c-2.08.95-4.17,1.88-6.26,2.77-2.1.9-4.21,1.77-6.33,2.62-2.13.85-4.26,1.67-6.4,2.46-2.14.79-4.29,1.56-6.45,2.3-2.16.74-4.33,1.45-6.51,2.14-61.9,19.57-132.85,12.89-197.26,12.78l-159.76-.07-453.27.02-296.27.07c-54.1.07-109.98,3.14-163.81-1.36-39.29-3.27-74.71-14.16-109.53-32.63-64.44-34.17-113.44-96.7-133.09-166.76-16.98-60.53-9.84-163.01-9.83-228.83v-272.76l-.04-1105.55.06-200.36c.03-20.25,3.43-78.54-1.32-93.81-2.73-.72-5.33-1.27-8.12-1.71l-2.88-.42c-1.02-1.41-1.77-2.21-2.11-4.1-2.95-16.43.48-38.84.58-56.03.31-54.14,1.08-108.53-.09-162.66-.22-10.33-3.46-30.83-.05-39.97,2.2-5.9,9.53-3.86,13.44-9.24.62-19.33,4.37-45.23-.96-63.67-2.75-.83-5.23-1.41-8.1-1.83-.95-.14-1.9-.25-2.86-.38-.34-.5-.75-.96-1.02-1.51-.17-.36-2.3-245.94-.6-257.4,1.18-8.01,9.32-7.86,12.15-15.72,3.86-10.71,3.96-98.77-.28-108.15l-9.4-1.47c-.89-1.33-2.25-2.44-2.65-3.99-1.89-7.27-.03-94.41-.09-107.19-.16-37.16,1.96-17.31,13.66-29.15,2.06-13.89.95-27.93.66-41.92-1.04-49.53-.1-99.32-.15-148.87-.1-109.73-5.87-192.98,77.08-278.73C144.07,31.48,212.84,2.59,286.71,1.19c93.1-1.76,186.62,0,279.76.06h540.63s248.48-.14,248.48-.14c48.1-.05,100.69-4.24,148.1,3.98,1.69.29,3.37.59,5.05.91s3.36.66,5.03,1.01c1.67.35,3.34.72,5.01,1.1s3.33.78,4.98,1.2c1.66.42,3.32.85,4.97,1.29,1.65.45,3.29.91,4.94,1.39,1.64.48,3.28.97,4.91,1.48s3.26,1.03,4.88,1.57c1.63.54,3.24,1.1,4.85,1.67,1.61.57,3.22,1.16,4.82,1.76,1.61.6,3.2,1.22,4.79,1.85,1.59.63,3.17,1.28,4.75,1.94s3.15,1.34,4.71,2.03c1.57.69,3.13,1.4,4.68,2.11,1.55.72,3.09,1.45,4.63,2.2,1.54.75,3.07,1.51,4.59,2.29,1.52.78,3.04,1.57,4.55,2.38,1.51.81,3.01,1.63,4.5,2.46,1.49.84,2.97,1.68,4.45,2.55,1.47.86,2.94,1.74,4.4,2.63,1.46.89,2.91,1.79,4.36,2.71,1.44.92,2.87,1.85,4.3,2.8,1.43.95,2.84,1.9,4.25,2.88,1.41.97,2.8,1.96,4.19,2.96s2.76,2.01,4.13,3.03c1.37,1.02,2.73,2.06,4.08,3.11,1.35,1.05,2.69,2.11,4.02,3.19,1.33,1.08,2.65,2.16,3.96,3.26,1.31,1.1,2.6,2.21,3.89,3.34,1.29,1.12,2.57,2.26,3.83,3.41,1.27,1.15,2.52,2.31,3.77,3.48,1.25,1.17,2.48,2.36,3.7,3.55,46.68,45.37,81.38,112.87,82.17,178.85,5.95,48.82,1.71,118.71,1.64,169.7l-.03,328.36-.03,89.51c-.01,13.25-1.55,27.39.28,40.51.98,6.97,3.08,11.09,7.94,16.19,8.34,8.75,6.6,22.69,6.22,33.97-2.33,96.03-2.93,192.06-1.81,288.1.24,25.1,2.97,50.38,2.76,75.38-.06,7.24-.77,14.33-3.23,21.17-4.65,4.26-6.29,3.79-12.39,4.51Z"/>
  <path class="cls-3" d="M265.76,10.35c23.37-2.53,48.05-1.04,71.6-1.02l129.89.14h421.1s401.03-.02,401.03-.02l117.38-.16c27.79-.04,56.12-1.21,83.72,2.35,2.81.38,5.61.8,8.4,1.27,2.79.47,5.57.98,8.35,1.54,2.77.56,5.54,1.16,8.3,1.8,2.75.64,5.5,1.33,8.24,2.06,2.73.73,5.45,1.5,8.16,2.32,2.71.82,5.41,1.68,8.09,2.58,2.69.9,5.36,1.85,8.01,2.83,2.65.99,5.29,2.02,7.91,3.09,2.62,1.07,5.22,2.18,7.81,3.34,2.59,1.15,5.15,2.35,7.7,3.58,2.55,1.23,5.07,2.51,7.58,3.82,2.51,1.31,4.99,2.67,7.46,4.06,2.47,1.39,4.91,2.83,7.32,4.3,2.42,1.47,4.82,2.98,7.19,4.53,2.37,1.55,4.72,3.13,7.04,4.75,2.32,1.62,4.61,3.28,6.88,4.97,1.75,1.31,3.48,2.63,5.19,3.98,1.72,1.35,3.42,2.72,5.1,4.11,1.68,1.39,3.34,2.8,4.99,4.23,1.65,1.43,3.28,2.88,4.89,4.35,1.61,1.47,3.21,2.96,4.78,4.47s3.13,3.04,4.67,4.58c1.54,1.55,3.06,3.11,4.56,4.7,1.5,1.58,2.98,3.18,4.44,4.8,1.46,1.62,2.9,3.26,4.33,4.91,1.42,1.65,2.82,3.33,4.2,5.02,1.38,1.69,2.74,3.39,4.08,5.11,1.34,1.72,2.66,3.46,3.95,5.21,1.3,1.75,2.58,3.52,3.83,5.31s2.49,3.58,3.7,5.4c1.21,1.81,2.39,3.64,3.56,5.49,1.17,1.84,2.31,3.7,3.43,5.57,1.12,1.87,2.22,3.76,3.29,5.65,1.07,1.9,2.13,3.81,3.16,5.73,1.03,1.92,2.03,3.86,3.01,5.81.98,1.95,1.94,3.91,2.87,5.88.93,1.97,1.84,3.95,2.73,5.95.88,1.99,1.74,4,2.58,6.01.83,2.01,1.64,4.04,2.43,6.07s1.55,4.08,2.29,6.13c.73,2.05,1.44,4.12,2.13,6.19.69,2.07,1.35,4.15,1.99,6.24.63,2.09,1.24,4.18,1.83,6.28.59,2.1,1.15,4.21,1.68,6.33.53,2.11,1.04,4.24,1.52,6.36.49,2.13.94,4.26,1.37,6.4.43,2.14.84,4.28,1.21,6.43.38,2.15.73,4.3,1.06,6.46,6.85,46.67,3.63,96.33,3.61,143.45l-.14,231.56.02,823.91.04,1231.16v389.91c.01,65.88,3.84,140.03-1.18,204.98-.22,3.19-.5,6.38-.83,9.57-.33,3.18-.72,6.36-1.17,9.53-.45,3.17-.95,6.33-1.51,9.48-.56,3.15-1.18,6.3-1.85,9.43-.67,3.13-1.4,6.24-2.19,9.35-.79,3.1-1.63,6.19-2.53,9.26-.89,3.07-1.84,6.13-2.85,9.17s-2.07,6.06-3.19,9.06c-1.11,3-2.28,5.98-3.51,8.94-1.22,2.96-2.5,5.9-3.83,8.81-1.33,2.91-2.71,5.8-4.14,8.66-1.43,2.87-2.92,5.7-4.46,8.51-1.53,2.81-3.12,5.59-4.75,8.34-1.64,2.75-3.33,5.48-5.06,8.17-1.73,2.69-3.51,5.35-5.34,7.98-1.83,2.63-3.71,5.22-5.63,7.78-46.32,61.84-111.57,95.55-187.09,106.47-28.77,2.59-58.33,1.45-87.22,1.43l-140.23-.12-447.34.02-362.37.05c-57.44.03-135.07,4.67-190.65-2.87-2.87-.4-5.74-.85-8.6-1.34s-5.71-1.03-8.56-1.62c-2.84-.59-5.67-1.22-8.5-1.9-2.82-.68-5.63-1.41-8.43-2.18-2.79-.77-5.58-1.59-8.35-2.45-2.77-.86-5.53-1.77-8.27-2.72-2.74-.95-5.47-1.95-8.18-3-2.71-1.04-5.4-2.13-8.07-3.26-2.67-1.13-5.33-2.3-7.97-3.52-2.63-1.21-5.25-2.47-7.84-3.78-2.59-1.3-5.17-2.64-7.72-4.03-2.55-1.39-5.07-2.82-7.57-4.29-2.51-1.47-4.99-2.98-7.44-4.53s-4.88-3.14-7.28-4.77c-2.4-1.63-4.78-3.3-7.13-5.01-2.35-1.71-4.66-3.45-6.95-5.24-1.72-1.33-3.42-2.69-5.11-4.07-1.69-1.37-3.36-2.77-5.01-4.19-1.66-1.42-3.3-2.86-4.91-4.31-1.62-1.46-3.22-2.94-4.81-4.43-1.58-1.5-3.14-3.02-4.69-4.55-1.55-1.53-3.07-3.08-4.58-4.65-1.51-1.57-3-3.16-4.47-4.77s-2.92-3.23-4.35-4.88c-1.43-1.64-2.84-3.3-4.23-4.98-1.39-1.67-2.76-3.37-4.11-5.08-1.35-1.71-2.67-3.43-3.98-5.18-1.31-1.74-2.59-3.5-3.86-5.27-1.27-1.77-2.51-3.56-3.73-5.37-1.22-1.8-2.42-3.62-3.59-5.45-1.18-1.83-2.34-3.68-3.47-5.54-1.13-1.86-2.23-3.73-3.32-5.62-1.09-1.89-2.15-3.8-3.19-5.71-1.04-1.91-2.06-3.84-3.05-5.78-.99-1.93-1.96-3.88-2.91-5.85-.95-1.96-1.87-3.93-2.77-5.92-.9-1.98-1.77-3.97-2.62-5.98s-1.67-4.02-2.47-6.05c-.81-2.03-1.58-4.06-2.33-6.1-.75-2.05-1.48-4.1-2.18-6.16-.7-2.07-1.38-4.14-2.03-6.21-.65-2.08-1.28-4.17-1.88-6.26-.6-2.09-1.17-4.19-1.72-6.3-.55-2.11-1.07-4.23-1.57-6.35s-.97-4.24-1.42-6.37c-.45-2.13-.87-4.27-1.26-6.42-.39-2.14-.76-4.29-1.1-6.44-.35-2.15-.66-4.3-.95-6.46-5.76-46.16-2.25-95.64-2.23-142.21l.12-263.53V812.8l-.04-366.63c-.05-58.86-3.87-132.35.85-189.89.12-1.63.26-3.25.41-4.87.15-1.62.32-3.24.5-4.86s.38-3.24.59-4.85c.21-1.62.44-3.23.68-4.84.24-1.61.5-3.22.77-4.83.27-1.61.55-3.21.85-4.81.3-1.6.62-3.2.95-4.8.33-1.6.67-3.19,1.03-4.78.36-1.59.74-3.18,1.13-4.76.39-1.58.79-3.16,1.21-4.74.41-1.58.85-3.15,1.3-4.71.45-1.57.91-3.13,1.38-4.69.47-1.56.96-3.11,1.47-4.66.51-1.55,1.03-3.09,1.56-4.63.53-1.54,1.08-3.08,1.64-4.61.57-1.53,1.14-3.05,1.73-4.57.59-1.52,1.2-3.03,1.81-4.54.62-1.51,1.25-3.01,1.9-4.51.65-1.5,1.31-2.99,1.98-4.47.67-1.48,1.36-2.96,2.06-4.43.7-1.47,1.41-2.94,2.14-4.4.73-1.46,1.47-2.91,2.22-4.36.76-1.44,1.53-2.88,2.31-4.31.78-1.43,1.57-2.85,2.38-4.27s1.63-2.82,2.46-4.23c.83-1.4,1.68-2.79,2.54-4.18.86-1.39,1.73-2.76,2.62-4.13.89-1.37,1.78-2.73,2.69-4.08.91-1.35,1.84-2.7,2.77-4.03s1.88-2.66,2.84-3.98c.96-1.32,1.93-2.63,2.91-3.93.99-1.3,1.98-2.59,2.99-3.87C126.73,53.25,191.8,19.72,265.76,10.35Z"/>
  <path class="cls-5" d="M275.87,18.4c22.6-2.27,46.57-.72,69.34-.69l130.11.13,420.67-.02,392.9-.05,112.7-.09c29.11-.05,58.44-1.05,87.35,2.8,2.71.38,5.42.8,8.13,1.26,2.7.46,5.39.97,8.08,1.52s5.36,1.14,8.03,1.78c2.67.63,5.32,1.31,7.97,2.03,2.65.72,5.28,1.48,7.9,2.29,2.62.8,5.23,1.65,7.82,2.53,2.6.89,5.18,1.81,7.74,2.78,2.57.97,5.12,1.98,7.65,3.03,2.53,1.05,5.05,2.14,7.55,3.27,2.49,1.13,4.97,2.3,7.44,3.51,2.46,1.21,4.9,2.46,7.32,3.74,2.42,1.29,4.82,2.61,7.2,3.97,2.38,1.36,4.74,2.76,7.07,4.2,2.33,1.44,4.64,2.91,6.93,4.42,2.29,1.51,4.56,3.06,6.79,4.64,2.24,1.58,4.45,3.2,6.64,4.86,1.73,1.29,3.44,2.61,5.13,3.94,1.69,1.34,3.37,2.69,5.02,4.07,1.66,1.38,3.3,2.77,4.93,4.19,1.63,1.42,3.23,2.85,4.82,4.31,1.59,1.46,3.17,2.93,4.72,4.43,1.55,1.5,3.09,3.01,4.6,4.54,1.51,1.53,3.01,3.08,4.49,4.65,1.48,1.57,2.94,3.16,4.37,4.76,1.44,1.61,2.86,3.23,4.26,4.87,1.4,1.64,2.78,3.3,4.13,4.97,1.36,1.67,2.7,3.36,4.01,5.07,1.32,1.71,2.62,3.43,3.89,5.17,1.27,1.74,2.52,3.49,3.75,5.26,1.23,1.77,2.44,3.56,3.63,5.36,1.19,1.8,2.35,3.61,3.49,5.44,1.14,1.83,2.26,3.67,3.36,5.53,1.09,1.86,2.17,3.73,3.22,5.61,1.05,1.88,2.07,3.78,3.08,5.68,1.01,1.91,1.99,3.83,2.94,5.76.95,1.93,1.89,3.88,2.8,5.83.91,1.95,1.79,3.92,2.65,5.9.86,1.98,1.7,3.96,2.51,5.96.81,2,1.59,4,2.36,6.02.76,2.02,1.5,4.04,2.21,6.08.71,2.03,1.39,4.08,2.06,6.13.66,2.05,1.29,4.11,1.9,6.18.61,2.07,1.2,4.14,1.76,6.22.56,2.08,1.09,4.17,1.6,6.26.51,2.09.99,4.2,1.45,6.3.45,2.11.88,4.22,1.29,6.34.4,2.12.78,4.24,1.13,6.37.35,2.13.68,4.26.98,6.39,5.88,44.12,2.64,91.72,2.63,136.22l-.1,239.83v804.12l.04,1231.73.06,399.42c0,66.84,3.73,138.47-1.08,204.53-.1,1.59-.22,3.17-.35,4.75-.13,1.58-.27,3.16-.43,4.74-.16,1.58-.33,3.16-.52,4.73-.19,1.58-.4,3.16-.61,4.73-.22,1.57-.45,3.14-.7,4.71-.25,1.57-.51,3.13-.78,4.69-.27,1.57-.56,3.13-.87,4.69-.31,1.55-.63,3.11-.96,4.66-.33,1.55-.68,3.1-1.04,4.65-.36,1.55-.73,3.09-1.12,4.62-.39,1.54-.8,3.08-1.22,4.61-.41,1.53-.84,3.06-1.29,4.58-.45,1.53-.91,3.05-1.38,4.56-.48,1.51-.97,3.02-1.47,4.53-.5,1.51-1.02,3.01-1.55,4.5-.53,1.5-1.07,2.99-1.63,4.48-.55,1.48-1.12,2.96-1.71,4.44-.59,1.47-1.19,2.94-1.8,4.41-.61,1.47-1.23,2.93-1.87,4.38-.64,1.45-1.29,2.89-1.96,4.34-.67,1.44-1.35,2.87-2.04,4.3-.69,1.43-1.39,2.85-2.11,4.27-.72,1.41-1.45,2.82-2.19,4.22-.75,1.41-1.51,2.8-2.28,4.19-.77,1.39-1.55,2.77-2.34,4.14-.8,1.37-1.61,2.74-2.43,4.1-.82,1.36-1.65,2.71-2.5,4.05-.84,1.35-1.7,2.68-2.57,4.01-.87,1.33-1.76,2.65-2.65,3.96-.89,1.31-1.8,2.61-2.72,3.91-.91,1.29-1.84,2.58-2.79,3.85-.94,1.28-1.89,2.55-2.86,3.81-47.03,61.57-111.93,92.68-187.45,102.91-92.84,2.33-186.16.5-279.04.5h-520.15l-266.14.04c-50.19.01-103.6,3.94-153.26-3.25-2.81-.42-5.62-.89-8.42-1.4-2.79-.51-5.58-1.07-8.36-1.68-2.78-.61-5.55-1.26-8.31-1.96-2.75-.69-5.5-1.44-8.23-2.23-2.73-.79-5.45-1.62-8.16-2.5-2.71-.88-5.4-1.8-8.07-2.77-2.67-.97-5.33-1.98-7.97-3.03-2.64-1.06-5.26-2.16-7.87-3.3-2.61-1.15-5.19-2.33-7.76-3.56-2.57-1.23-5.11-2.5-7.63-3.81-2.53-1.31-5.03-2.67-7.5-4.06-2.48-1.4-4.94-2.84-7.37-4.31-2.43-1.48-4.83-3-7.22-4.55-2.38-1.56-4.73-3.16-7.06-4.79s-4.63-3.31-6.9-5.02c-2.27-1.71-4.52-3.45-6.73-5.24-52.83-42.38-89.93-106.11-96.89-173.88-5.52-53.69-2.13-110-2.09-164.02l.09-294.11v-968.48s-.04-1070.13-.04-1070.13l-.09-341.88c-.01-58.56-3.64-119.94,1.55-178.22.14-1.61.3-3.22.47-4.82.17-1.61.35-3.21.55-4.81.2-1.6.42-3.2.65-4.8.23-1.6.48-3.2.74-4.79.26-1.59.54-3.19.83-4.78.29-1.59.59-3.17.92-4.76.32-1.58.65-3.16,1-4.74.35-1.58.72-3.15,1.1-4.72.38-1.57.77-3.14,1.18-4.7.41-1.56.84-3.12,1.28-4.68.44-1.55.89-3.1,1.36-4.65.47-1.55.95-3.09,1.45-4.62.49-1.54,1-3.07,1.53-4.6.53-1.53,1.07-3.05,1.62-4.57.56-1.52,1.13-3.03,1.71-4.54.59-1.51,1.18-3.01,1.79-4.5.61-1.5,1.24-2.98,1.88-4.47s1.29-2.96,1.96-4.43c.67-1.47,1.35-2.94,2.04-4.39.7-1.46,1.41-2.91,2.13-4.35.72-1.44,1.46-2.88,2.21-4.31.75-1.43,1.51-2.86,2.28-4.27.78-1.42,1.57-2.83,2.37-4.23.81-1.4,1.62-2.8,2.45-4.18.83-1.39,1.67-2.76,2.53-4.13.85-1.37,1.72-2.73,2.6-4.09.88-1.35,1.77-2.7,2.68-4.04.91-1.34,1.82-2.67,2.75-3.99.93-1.32,1.88-2.63,2.83-3.93.96-1.3,1.93-2.6,2.91-3.88.98-1.28,1.97-2.56,2.97-3.82,1.01-1.27,2.02-2.52,3.05-3.77,46.99-57.22,111.57-88.88,184.57-95.89Z"/>
  <path class="cls-6" d="M278.77,28.38c19.28-2.31,40.47-.85,59.92-.82l117.5.17h391.21s421.38-.04,421.38-.04l126.01-.15c27.95-.02,56.74-1.3,84.51,2.07,2.77.32,5.52.68,8.27,1.09,2.75.41,5.5.87,8.24,1.37,2.73.5,5.46,1.05,8.18,1.65,2.71.59,5.42,1.23,8.12,1.92,2.69.69,5.38,1.42,8.05,2.19,2.67.78,5.33,1.6,7.97,2.46,2.65.87,5.28,1.77,7.89,2.73s5.21,1.95,7.79,2.99c2.58,1.04,5.14,2.12,7.69,3.25,2.55,1.13,5.07,2.3,7.57,3.51,2.51,1.21,4.99,2.46,7.45,3.76,2.47,1.29,4.91,2.63,7.32,4.01,2.42,1.38,4.82,2.79,7.19,4.25,2.37,1.46,4.71,2.95,7.03,4.49,2.32,1.54,4.61,3.11,6.88,4.72,2.27,1.61,4.51,3.26,6.72,4.95,1.65,1.24,3.28,2.5,4.89,3.78,1.61,1.28,3.21,2.58,4.79,3.9,1.59,1.32,3.15,2.66,4.7,4.01s3.08,2.73,4.6,4.13c1.51,1.39,3.01,2.81,4.49,4.24,1.48,1.43,2.94,2.88,4.39,4.35,1.45,1.47,2.87,2.95,4.28,4.45,1.41,1.5,2.8,3.02,4.17,4.56,1.37,1.54,2.73,3.09,4.06,4.66,1.33,1.57,2.65,3.15,3.94,4.76,1.29,1.6,2.57,3.22,3.82,4.85,1.25,1.63,2.49,3.28,3.71,4.95,1.21,1.66,2.41,3.34,3.58,5.03,1.17,1.69,2.32,3.4,3.45,5.12,1.13,1.72,2.24,3.46,3.33,5.2,1.09,1.75,2.15,3.51,3.2,5.29,1.05,1.77,2.07,3.56,3.07,5.36,1,1.8,1.98,3.61,2.94,5.43.95,1.82,1.89,3.66,2.8,5.51.91,1.85,1.8,3.7,2.66,5.57.87,1.87,1.71,3.75,2.53,5.64s1.62,3.79,2.39,5.7c.77,1.91,1.52,3.83,2.25,5.75.73,1.93,1.43,3.86,2.11,5.81.67,1.94,1.33,3.9,1.96,5.86.63,1.96,1.23,3.93,1.82,5.9.58,1.98,1.14,3.96,1.67,5.95.53,1.99,1.04,3.98,1.53,5.99.48,2,.94,4.01,1.38,6.02.43,2.01.84,4.03,1.23,6.05.39,2.02.75,4.05,1.08,6.08.33,2.03.64,4.07.93,6.11,6.05,45.38,2.69,94.27,2.65,140.02l-.12,245.47v849.07s.03,1203.94.03,1203.94v508.03c.02,23.16,1.04,46.98-.69,70.04-.25,3.03-.55,6.05-.91,9.06-.36,3.01-.77,6.02-1.23,9.02-.47,3-.99,5.99-1.56,8.97-.57,2.98-1.2,5.95-1.88,8.9-.68,2.96-1.41,5.91-2.2,8.84-.79,2.93-1.63,5.84-2.52,8.75-.89,2.9-1.83,5.78-2.82,8.65-1,2.87-2.05,5.71-3.14,8.54-1.1,2.83-2.25,5.64-3.44,8.43-1.2,2.79-2.45,5.55-3.75,8.3-1.29,2.75-2.64,5.47-4.03,8.16-1.4,2.69-2.84,5.36-4.33,8.01-1.49,2.64-3.03,5.25-4.62,7.84-1.59,2.59-3.22,5.15-4.89,7.68-1.68,2.53-3.4,5.03-5.17,7.5-1.77,2.47-3.58,4.9-5.43,7.3-45.56,59.03-108.34,88.81-181.14,97.88-85.98,3.33-173.33.34-259.44.33l-510.91-.05h-285.98c-48.48.01-101.08,4.47-148.94-2.26-2.77-.37-5.54-.8-8.3-1.27-2.76-.47-5.51-.98-8.25-1.53-2.74-.56-5.47-1.17-8.19-1.82-2.73-.65-5.44-1.34-8.14-2.08-2.69-.74-5.38-1.52-8.05-2.35-2.67-.83-5.33-1.71-7.98-2.62-2.64-.92-5.27-1.88-7.88-2.88-2.61-1.01-5.21-2.06-7.78-3.15-2.58-1.09-5.14-2.22-7.68-3.39-2.54-1.18-5.06-2.4-7.56-3.66-2.5-1.25-4.98-2.55-7.43-3.9-2.45-1.34-4.89-2.72-7.3-4.14-2.41-1.42-4.79-2.88-7.16-4.39-2.36-1.5-4.69-3.04-7-4.62-2.31-1.57-4.6-3.19-6.85-4.85-2.26-1.65-4.49-3.34-6.69-5.07-1.63-1.28-3.24-2.58-4.84-3.91-1.59-1.32-3.17-2.66-4.73-4.02-1.57-1.36-3.11-2.74-4.64-4.14-1.53-1.4-3.05-2.82-4.54-4.26-1.49-1.43-2.97-2.89-4.42-4.36-1.46-1.47-2.9-2.96-4.32-4.47-1.43-1.51-2.83-3.03-4.21-4.58-1.39-1.54-2.75-3.1-4.1-4.68-1.34-1.57-2.66-3.16-3.97-4.77-1.31-1.61-2.59-3.24-3.86-4.88-1.27-1.64-2.51-3.3-3.74-4.97-1.23-1.67-2.43-3.35-3.62-5.05-1.18-1.71-2.34-3.42-3.49-5.15-1.14-1.73-2.26-3.47-3.36-5.23-1.1-1.76-2.18-3.53-3.23-5.31-1.05-1.79-2.09-3.58-3.1-5.39-1.01-1.81-2-3.63-2.96-5.46-.97-1.83-1.91-3.68-2.84-5.54-.92-1.85-1.82-3.72-2.69-5.6-.87-1.88-1.72-3.77-2.55-5.67-.83-1.9-1.64-3.81-2.42-5.73-.78-1.92-1.54-3.85-2.27-5.79-.73-1.93-1.44-3.88-2.13-5.84-.69-1.95-1.35-3.92-1.99-5.89-.63-1.97-1.25-3.95-1.84-5.94-.59-1.99-1.15-3.98-1.69-5.98s-1.06-4.01-1.55-6.02c-.49-2.01-.95-4.03-1.39-6.06-.45-2.03-.86-4.06-1.25-6.09-.39-2.03-.76-4.07-1.1-6.12-.34-2.05-.66-4.09-.95-6.14-.29-2.05-.55-4.11-.79-6.17-5.6-49.6-1.91-102.73-1.86-152.72l.07-278.69V789.06l-.02-352.88c0-58.62-3.93-119.66,1.11-177.91.13-1.56.28-3.11.44-4.67.15-1.56.33-3.11.52-4.66.19-1.55.39-3.1.61-4.65.21-1.55.44-3.09.69-4.64.25-1.54.52-3.08.79-4.62.27-1.54.56-3.07.87-4.61.31-1.53.63-3.06.96-4.59.33-1.53.68-3.05,1.04-4.57.36-1.52.74-3.04,1.13-4.55.39-1.51.8-3.02,1.21-4.53.42-1.51.85-3.01,1.3-4.51.45-1.5.91-2.99,1.39-4.48.47-1.49.96-2.97,1.46-4.45.51-1.48,1.02-2.96,1.55-4.43.53-1.47,1.08-2.93,1.64-4.4.56-1.46,1.13-2.91,1.71-4.36.59-1.45,1.19-2.89,1.8-4.33.61-1.44,1.24-2.87,1.88-4.3.64-1.43,1.29-2.85,1.96-4.26.67-1.41,1.35-2.82,2.04-4.22.69-1.4,1.4-2.8,2.12-4.18.72-1.39,1.45-2.77,2.19-4.14.75-1.37,1.51-2.74,2.28-4.1.77-1.36,1.55-2.71,2.35-4.06.79-1.35,1.6-2.68,2.42-4.01.82-1.33,1.65-2.65,2.5-3.97.85-1.31,1.71-2.62,2.58-3.92.87-1.3,1.75-2.59,2.65-3.87.89-1.28,1.8-2.56,2.72-3.82.91-1.26,1.84-2.52,2.79-3.77.94-1.25,1.89-2.49,2.86-3.71.97-1.23,1.94-2.45,2.93-3.66,45.12-55.39,107.49-85.88,177.96-92.85Z"/>
  <path class="cls-4" d="M279.99,104.65c80.65-4.3,167.19-.67,248.54-.66l484.56.02,302.17-.06c50.22-.08,109.03-4.4,158.07,1.93,2.23.27,4.46.59,6.69.94,2.23.35,4.44.74,6.65,1.17,2.21.43,4.42.89,6.61,1.39,2.2.5,4.39,1.04,6.56,1.62,2.18.58,4.35,1.19,6.5,1.84,2.16.65,4.31,1.34,6.44,2.06,2.13.72,4.25,1.48,6.36,2.27,2.11.79,4.2,1.62,6.28,2.49,2.08.87,4.14,1.77,6.19,2.7,2.05.94,4.08,1.91,6.09,2.91,2.02,1.01,4.02,2.04,6,3.12,1.98,1.07,3.94,2.18,5.88,3.32,1.94,1.14,3.86,2.31,5.77,3.52,1.9,1.21,3.78,2.44,5.64,3.71,1.86,1.27,3.7,2.57,5.51,3.9,1.82,1.33,3.61,2.69,5.38,4.09,1.27,1.01,2.52,2.04,3.77,3.08,1.24,1.04,2.47,2.1,3.69,3.17,1.21,1.07,2.42,2.16,3.61,3.27,1.19,1.1,2.36,2.22,3.52,3.35,1.17,1.13,2.32,2.28,3.45,3.44,1.13,1.16,2.25,2.33,3.36,3.52,1.11,1.19,2.2,2.39,3.27,3.6,1.07,1.22,2.13,2.44,3.18,3.68,1.05,1.24,2.08,2.49,3.09,3.76,1.01,1.27,2.01,2.55,3,3.84.98,1.29,1.95,2.59,2.9,3.91.95,1.32,1.89,2.64,2.8,3.98.92,1.34,1.82,2.69,2.71,4.05.89,1.36,1.75,2.73,2.6,4.11.85,1.38,1.69,2.77,2.51,4.18.81,1.4,1.61,2.81,2.4,4.23.78,1.42,1.54,2.85,2.29,4.29.75,1.44,1.48,2.89,2.19,4.35.71,1.46,1.41,2.92,2.08,4.4.67,1.48,1.33,2.96,1.97,4.45.64,1.49,1.26,2.99,1.86,4.5.6,1.51,1.18,3.02,1.75,4.54.57,1.52,1.11,3.05,1.64,4.58.53,1.53,1.03,3.08,1.52,4.62.49,1.55.96,3.1,1.41,4.66.45,1.56.89,3.12,1.3,4.69.41,1.57.81,3.14,1.18,4.72.37,1.58.73,3.16,1.06,4.75s.65,3.18.94,4.78c.3,1.6.58,3.2.83,4.8.25,1.6.49,3.21.71,4.82.21,1.61.41,3.22.59,4.83,4.83,44.69,1.25,92.62,1.25,137.72l.03,273.33-.02,888.62-.05,1145.46.05,360.94c.07,62.04,3.72,126.53-.71,188.35-.17,2.51-.38,5.01-.64,7.5-.26,2.49-.57,4.98-.92,7.47-.35,2.48-.76,4.96-1.21,7.43-.45,2.47-.94,4.92-1.49,7.37-.55,2.45-1.14,4.89-1.77,7.31-.64,2.43-1.33,4.84-2.06,7.24-.73,2.4-1.5,4.79-2.33,7.16-.82,2.37-1.69,4.73-2.6,7.06-.91,2.34-1.87,4.66-2.87,6.96-1.01,2.3-2.05,4.58-3.14,6.84-1.09,2.26-2.23,4.5-3.4,6.71-1.17,2.22-2.39,4.41-3.65,6.58-1.26,2.17-2.56,4.32-3.9,6.44-1.35,2.12-2.73,4.21-4.15,6.28-1.42,2.07-2.88,4.11-4.38,6.12-1.5,2.01-3.04,3.99-4.62,5.94-34.92,43.26-83.01,66.51-137.62,72.64-84.38,3.87-170.12.58-254.66.57h-488.94s-297.35.06-297.35.06c-48.74.06-105.05,4.21-152.65-1.63-2.22-.26-4.43-.56-6.64-.89s-4.41-.7-6.61-1.11c-2.19-.41-4.38-.85-6.56-1.33-2.18-.48-4.35-1-6.52-1.56-2.16-.55-4.31-1.15-6.46-1.78-2.14-.63-4.27-1.29-6.39-1.99-2.12-.7-4.23-1.44-6.33-2.21-2.09-.77-4.17-1.58-6.24-2.42-2.07-.85-4.12-1.73-6.16-2.64-2.04-.91-4.06-1.86-6.07-2.84-2-.98-3.99-2-5.96-3.05-1.97-1.05-3.93-2.13-5.86-3.24-1.93-1.12-3.85-2.27-5.75-3.45-1.89-1.18-3.77-2.39-5.62-3.63-1.86-1.25-3.69-2.52-5.5-3.83-1.81-1.31-3.6-2.64-5.37-4.01-40.17-31.23-68.47-79.95-74.32-130.7-4.55-39.45-1.23-82.69-1.23-122.58l-.02-242.21v-816.53s.04-1222.35.04-1222.35v-393.06c-.03-66.29-3.6-134.53.39-200.57.15-2.51.35-5.02.6-7.53.25-2.51.55-5.01.89-7.5.35-2.49.74-4.98,1.19-7.46.44-2.48.93-4.95,1.47-7.41.54-2.46,1.13-4.91,1.76-7.35.63-2.44,1.3-4.86,2.03-7.27.73-2.41,1.51-4.81,2.32-7.19.82-2.38,1.69-4.75,2.6-7.1s1.87-4.68,2.87-6.99,2.05-4.6,3.14-6.87c1.09-2.27,2.22-4.52,3.4-6.75,1.18-2.23,2.4-4.43,3.66-6.61s2.56-4.33,3.91-6.46c1.35-2.13,2.73-4.23,4.16-6.31,1.43-2.08,2.89-4.12,4.4-6.14,1.51-2.02,3.05-4.01,4.64-5.96,35.43-43.95,83.54-66.59,138.87-72.85Z"/>
  <path class="cls-6" d="M718.46,135.92c57.21-2.04,114.97-.24,172.23-.25,36.16,0,74.19-2.9,110.13,0,8.91.72,17.75,2.51,25.97,6.13,12.82,5.65,24.25,15.25,29.14,28.7,5.42,14.9,2.97,35.15-4.51,48.98-8.16,15.08-22.26,22.33-37.89,27.51-44.07,3.13-90.01.73-134.32.77-49.02.04-99.24,2.33-148.07-.52-8.49-.5-17.64-1.18-25.53-4.51-13.75-5.79-24.48-18.06-29.37-32.01-5.03-14.37-4.65-32.01,2.6-45.58,8.47-15.89,22.97-24.13,39.62-29.2Z"/>
  <path class="cls-2" d="M12.67,1153.92l1.77-.02c.92,1.38,1.38,1.87,1.78,3.69,4.6,20.72-3.16,92.61-3.21,119.76-.06,36.18,3.09,72.53,3.25,108.83.03,7.11,1.62,19.22-2.59,24.78l-5.83-.6c-2.03-2.93-2.54-4.4-3.45-7.75,9.9-24.32,9.4-201.46,1.36-229.46-.1-.37-1.18-3.79-1.22-4.38-.43-6.45,4.39-10.15,8.14-14.85Z"/>
  <path class="cls-2" d="M12.68,815.91l2.71.81c6.36,28.91-2.37,90.43-2.56,124.02-.15,26.97,2.84,54.16,3.41,81.19.26,12.3,3.48,41.67-2.56,51.19l-5.8-.9c-2.08-2.88-2.57-4.29-3.5-7.62,11.16-29.18,6.66-184.8,4.42-225.06-2.6-2.58-3.8-4.42-5.16-7.82.34-6.9,4.78-10.83,9.04-15.81Z"/>
  <path class="cls-2" d="M12.34,559.2l2.66,2.12c2.2,5.74,1.79,11.96,1.8,18.03.01,15.35-4.18,30.84-3.55,45.97.81,19.32,7.94,43.49,2.43,62.24-1.09,3.72-.29,2.36-3.97,4.47l-8.88-2.87c.09-.22.15-.45.27-.65,14.11-22.73,7.29-86.96,5.87-114.9-2.72-2.59-3.71-3.33-4.93-6.99l8.3-7.41Z"/>
  <ellipse class="cls-8" cx="873.45" cy="3692.44" rx="495.6" ry="46.82"/>
  <g>
    <path class="cls-1" d="M316.18,464.13c53.41-1.82,107.51-.23,160.92-.45h58.41c12.73,0,26.37-.91,38.87,1.14,3.18.45,6.36,1.14,9.32,2.05,3.18.91,6.14,2.05,9.09,3.18,2.95,1.36,5.68,2.73,8.41,4.32,2.73,1.59,5.45,3.41,7.96,5.45,16.82,13.18,27.5,31.37,30,52.5,2.05,16.82,1.14,34.32,1.14,51.37v157.97c0,17.5,1.14,35.68-1.82,52.96-2.27,13.41-7.05,24.32-15.46,35-.91,1.14-1.59,2.05-2.5,2.95s-1.82,2.05-2.73,2.95l-2.73,2.73c-.91.91-1.82,1.82-2.95,2.5-.91.91-2.05,1.59-2.95,2.5-1.14.68-2.05,1.59-3.18,2.27s-2.05,1.36-3.18,2.05-2.27,1.36-3.41,2.05-2.27,1.14-3.41,1.82-2.27,1.14-3.64,1.59c-1.14.45-2.5.91-3.64,1.36s-2.5.91-3.64,1.36-2.5.68-3.64,1.14-2.5.68-3.86.91-2.5.45-3.86.68c-1.36,0-2.5.45-3.86.45-18.41,1.36-37.28.68-55.91.68h-160.47c-15.23,0-31.59.91-46.82-1.59-11.36-1.82-22.96-7.5-32.27-14.55-15.91-12.27-27.5-30.46-30.23-50.46-2.5-18.41-1.36-37.73-1.36-56.37v-162.51c0-14.09-.91-29.32,1.14-43.41.45-3.41,1.14-6.82,2.05-10s2.05-6.59,3.41-9.77c1.36-3.18,2.95-6.14,4.55-9.09,1.82-2.95,3.64-5.68,5.68-8.41,14.09-18.18,33.41-27.05,55.91-30l.68.68Z"/>
    <path class="cls-7" d="M343.68,515.95c36.59-2.05,77.96-.23,115.24-.23,23.87,0,61.14-2.05,83.41.91,7.73.91,15,3.86,21.59,8.18,11.14,7.27,20,19.09,22.5,32.27,2.73,13.18,1.59,27.96,1.59,41.37v122.74c0,12.5.68,25.46-.68,37.96-.91,9.09-2.95,17.73-8.18,25.23-9.09,13.64-22.5,20-38.18,23.18-41.37,1.36-82.96.23-124.33.23-22.96,0-53.41,2.27-75.46-.68-8.18-1.14-15.68-3.86-22.5-8.64-1.36-.91-2.95-2.05-4.32-3.18-1.36-1.14-2.73-2.27-3.86-3.64s-2.5-2.73-3.41-4.09c-1.14-1.36-2.05-2.95-3.18-4.32-.91-1.59-1.82-2.95-2.73-4.55s-1.59-3.18-2.05-4.77c-.68-1.59-1.14-3.41-1.59-5-.45-1.82-.91-3.41-1.14-5.23-1.59-10.23-.91-21.59-.91-31.82v-125.24c0-14.32-.91-29.32.91-43.41,1.14-9.55,3.41-16.82,9.09-24.77,9.32-12.96,22.5-19.55,38.18-22.05v-.45Z"/>
    <path class="cls-1" d="M349.59,543.23c57.28-.91,114.55.45,172.06-.23-2.5,4.09-5,7.96-6.36,12.73-1.82,7.27-.91,15,3.18,21.37.45.68.91,1.36,1.59,2.05.45.68,1.14,1.36,1.82,2.05.68.68,1.14,1.14,1.82,1.82s1.36,1.14,2.05,1.59,1.36.91,2.27,1.36c.68.45,1.59.91,2.27,1.14s1.59.68,2.5.91c.91.23,1.59.45,2.5.68,9.77,2.05,17.5-1.59,25.46-6.59v120.24c0,16.59,2.5,45-1.36,60-1.82,7.5-7.96,12.27-14.32,16.14-2.5.68-5.23,1.36-7.96,1.82-10.91,1.14-22.5.45-33.64.45h-120.92c-10.91,0-22.05.91-32.96,0-5.91-.68-11.82-1.82-16.59-5.68-5.23-4.32-8.86-10-9.55-16.82-1.14-11.36-.45-23.41-.45-34.78v-125.01c0-11.59-.68-23.87.91-35.46.45-3.86,2.5-7.5,5-10.46,5.45-6.59,12.5-8.64,20.68-9.32h0Z"/>
    <path class="cls-7" d="M432.55,599.37c1.14,0,2.05-.23,3.18-.45h9.55c1.14,0,2.05,0,3.18.23,1.14,0,2.05.23,3.18.45s2.05.23,2.95.45c.91,0,2.05.45,2.95.68s2.05.45,2.95.91c.91.23,2.05.68,2.95.91.91.45,2.05.68,2.95,1.14l2.73,1.36,2.73,1.36c.91.45,1.82.91,2.73,1.59s1.82,1.14,2.73,1.59c.91.68,1.82,1.14,2.5,1.82.91.68,1.59,1.36,2.5,1.82.91.68,1.59,1.36,2.27,2.05.68.68,1.59,1.36,2.27,2.05.68.68,1.36,1.59,2.05,2.27s1.36,1.59,2.05,2.27c.68.91,1.36,1.59,1.82,2.5.68.91,1.14,1.59,1.82,2.5.68.91,1.14,1.82,1.59,2.73s1.14,1.82,1.59,2.73.91,1.82,1.36,2.73.91,1.82,1.36,2.95c.45.91.68,1.82,1.14,2.95.45.91.68,2.05.91,2.95.23.91.68,2.05.91,2.95.23.91.45,2.05.68,2.95,0,.91.45,2.05.45,2.95,0,1.14.23,2.05.45,3.18v9.55c0,1.14,0,2.05-.23,3.18s-.23,2.05-.45,3.18c0,1.14-.23,2.05-.45,2.95,0,.91-.45,2.05-.68,2.95-.23.91-.45,2.05-.91,2.95-.23.91-.68,2.05-.91,2.95-.45.91-.68,2.05-1.14,2.95-.45.91-.91,1.82-1.36,2.73s-.91,1.82-1.36,2.73-.91,1.82-1.59,2.73c-.45.91-1.14,1.82-1.59,2.73-.68.91-1.14,1.59-1.82,2.5-.68.91-1.36,1.59-1.82,2.5-.68.91-1.36,1.59-2.05,2.27s-1.36,1.59-2.05,2.27-1.59,1.36-2.27,2.05c-.68.68-1.59,1.36-2.27,2.05-.91.68-1.59,1.36-2.5,1.82-.91.68-1.59,1.14-2.5,1.82s-1.82,1.14-2.73,1.59c-.91.45-1.82,1.14-2.73,1.59l-2.73,1.36c-.91.45-1.82.91-2.95,1.14-.91.45-1.82.68-2.95,1.14-.91.45-2.05.68-2.95.91-.91.23-2.05.45-2.95.91-.91.23-2.05.45-2.95.68-.91,0-2.05.45-2.95.45-1.14,0-2.05.23-3.18.45h-9.55c-1.14,0-2.05,0-3.18-.23-1.14,0-2.05-.23-3.18-.45-1.14,0-2.05-.23-2.95-.45-.91,0-2.05-.45-2.95-.68s-2.05-.45-2.95-.91c-.91-.23-2.05-.68-2.95-.91-.91-.45-2.05-.68-2.95-1.14-.91-.45-1.82-.91-2.73-1.36-.91-.45-1.82-.91-2.73-1.36s-1.82-.91-2.73-1.59c-.91-.45-1.82-1.14-2.73-1.59-.91-.68-1.59-1.14-2.5-1.82-.91-.68-1.59-1.36-2.5-1.82-.91-.68-1.59-1.36-2.27-2.05-.68-.68-1.59-1.36-2.27-2.05-.68-.68-1.36-1.59-2.05-2.27-.68-.68-1.36-1.59-2.05-2.27-.68-.91-1.36-1.59-1.82-2.5-.68-.91-1.14-1.59-1.82-2.5-.68-.91-1.14-1.82-1.59-2.73s-1.14-1.82-1.59-2.73-.91-1.82-1.36-2.73c-.45-.91-.91-1.82-1.14-2.95-.45-.91-.68-1.82-1.14-2.95-.45-.91-.68-2.05-.91-2.95s-.68-2.05-.91-2.95c-.23-.91-.45-2.05-.68-2.95,0-.91-.45-2.05-.45-2.95,0-1.14-.23-2.05-.45-3.18v-9.55c0-1.14,0-2.05.23-3.18s.23-2.05.45-3.18c0-1.14.23-2.05.45-2.95,0-.91.45-2.05.68-2.95.23-.91.45-2.05.91-2.95.23-.91.68-2.05.91-2.95.45-.91.68-2.05,1.14-2.95.45-.91.91-1.82,1.36-2.73.45-.91.91-1.82,1.36-2.73.45-.91.91-1.82,1.59-2.73.45-.91,1.14-1.82,1.59-2.73.68-.91,1.14-1.59,1.82-2.5.68-.91,1.36-1.59,1.82-2.5.68-.91,1.36-1.59,2.05-2.27.68-.68,1.36-1.59,2.05-2.27.68-.68,1.59-1.36,2.27-2.05.68-.68,1.59-1.36,2.27-2.05.91-.68,1.59-1.36,2.5-1.82.91-.68,1.59-1.14,2.5-1.82.91-.68,1.82-1.14,2.73-1.59s1.82-1.14,2.73-1.59,1.82-.91,2.73-1.36c.91-.45,1.82-.91,2.95-1.14.91-.45,1.82-.68,2.95-1.14.91-.45,2.05-.68,2.95-.91.91-.23,2.05-.68,2.95-.91.91-.23,2.05-.45,2.95-.68.91,0,2.05-.45,2.95-.45h-.23Z"/>
    <path class="cls-1" d="M434.14,620.05c.68,0,1.36-.23,2.05-.23h10.23c.68,0,1.36,0,2.05.23.68,0,1.36.23,2.05.45.68,0,1.36.23,2.05.45s1.36.45,2.05.68c.68,0,1.36.45,2.05.68s1.36.45,2.05.68,1.36.68,1.82.91c.68.23,1.14.68,1.82.91.68.45,1.14.68,1.82,1.14s1.14.68,1.82,1.14,1.14.91,1.59,1.14c.45.45,1.14.91,1.59,1.36.45.45,1.14.91,1.59,1.36.45.45.91.91,1.59,1.59.45.45.91,1.14,1.36,1.59s.91,1.14,1.36,1.59.91,1.14,1.36,1.59c.45.68.68,1.14,1.14,1.82s.68,1.14,1.14,1.82.68,1.14.91,1.82.68,1.36.91,1.82c.23.68.45,1.36.91,2.05.23.68.45,1.36.68,2.05,0,.68.45,1.36.68,2.05,0,.68.45,1.36.45,2.05s.23,1.36.45,2.05c0,.68,0,1.36.23,2.05v10.23c0,.68,0,1.36-.23,2.05,0,.68-.23,1.36-.45,2.05,0,.68-.23,1.36-.45,2.05,0,.68-.45,1.36-.68,2.05,0,.68-.45,1.36-.68,2.05-.23.68-.45,1.36-.91,2.05-.23.68-.68,1.36-.91,1.82-.23.68-.68,1.14-.91,1.82-.45.68-.68,1.14-1.14,1.82s-.68,1.14-1.14,1.82-.91,1.14-1.36,1.59-.91,1.14-1.36,1.59-.91,1.14-1.36,1.59-.91.91-1.59,1.36c-.45.45-1.14.91-1.59,1.36-.45.45-1.14.91-1.59,1.36-.45.45-1.14.91-1.59,1.14-.68.45-1.14.68-1.82,1.14s-1.14.68-1.82,1.14c-.68.23-1.14.68-1.82.91-.68.23-1.36.68-1.82.91-.68.23-1.36.45-2.05.68s-1.36.45-2.05.68c-.68,0-1.36.45-2.05.68-.68,0-1.36.45-2.05.45s-1.36.23-2.05.45c-.68,0-1.36,0-2.05.23h-10.23c-.68,0-1.36,0-2.05-.23-.68,0-1.36-.23-2.05-.45-.68,0-1.36-.23-2.05-.45-.68,0-1.36-.45-2.05-.68-.68,0-1.36-.45-2.05-.68s-1.36-.45-1.82-.91c-.68-.23-1.36-.68-1.82-.91s-1.14-.68-1.82-.91c-.68-.45-1.14-.68-1.82-1.14s-1.14-.68-1.82-1.14c-.45-.45-1.14-.91-1.59-1.14-.45-.45-1.14-.91-1.59-1.36-.45-.45-1.14-.91-1.59-1.36l-1.36-1.36c-.45-.45-.91-.91-1.36-1.59-.45-.45-.91-1.14-1.36-1.59-.45-.45-.91-1.14-1.14-1.59-.45-.45-.68-1.14-1.14-1.82s-.68-1.14-1.14-1.82c-.23-.68-.68-1.14-.91-1.82-.23-.68-.68-1.14-.91-1.82-.23-.68-.45-1.36-.68-1.82-.23-.68-.45-1.36-.68-2.05,0-.68-.45-1.36-.68-2.05,0-.68-.45-1.36-.45-2.05s-.23-1.36-.45-2.05c0-.68,0-1.36-.23-2.05v-10.23c0-.68,0-1.36.23-2.05,0-.68.23-1.36.45-2.05,0-.68.23-1.36.45-2.05,0-.68.45-1.36.68-2.05,0-.68.45-1.36.68-2.05.23-.68.45-1.36.68-1.82.23-.68.68-1.36.91-1.82.23-.68.68-1.14.91-1.82.23-.68.68-1.14,1.14-1.82s.68-1.14,1.14-1.82c.45-.45.91-1.14,1.14-1.59.45-.45.91-1.14,1.36-1.59.45-.45.91-1.14,1.36-1.59l1.36-1.36c.45-.45.91-.91,1.59-1.36.45-.45,1.14-.91,1.59-1.36.45-.45,1.14-.91,1.59-1.14.45-.45,1.14-.68,1.82-1.14s1.14-.68,1.82-1.14,1.14-.68,1.82-.91c.68-.23,1.14-.68,1.82-.91.68-.23,1.36-.45,1.82-.91.68-.23,1.36-.45,2.05-.68.68,0,1.36-.45,2.05-.68.68,0,1.36-.45,2.05-.45s1.36-.23,2.05-.45v-.23Z"/>
    <g>
      <path d="M728.93,701.19l16.82-20.23c9.32,8.18,21.37,13.64,32.05,13.64s18.41-4.77,18.41-12.5-7.5-10.91-18.86-15.46l-17.05-7.27c-13.41-5.45-26.37-16.59-26.37-35.46s19.32-38.87,46.37-38.87,30.68,5.91,41.82,17.05l-14.77,18.64c-8.64-6.59-16.82-10.23-27.05-10.23s-16.59,4.32-16.59,11.59,8.64,10.91,20,15.46l16.59,6.82c15.91,6.36,25.91,17.05,25.91,35.46s-17.96,40.46-49.09,40.46-35-6.36-48.19-18.86v-.23Z"/>
      <path d="M843.94,588.69c0-9.09,7.05-15.46,17.05-15.46s17.05,6.36,17.05,15.46-7.05,15.46-17.05,15.46-17.05-6.36-17.05-15.46ZM846.21,618.46h29.32v99.32h-29.32v-99.32Z"/>
      <path d="M905.31,681.65v-40h-13.64v-22.05l15.23-1.14,3.41-26.37h24.32v26.37h23.87v22.96h-23.87v39.78c0,11.14,5,15.68,12.96,15.68s6.82-.91,9.55-1.82l4.55,21.37c-5.23,1.59-12.5,3.64-22.05,3.64-24.55,0-34.32-15.46-34.32-38.41h0Z"/>
      <path d="M968.72,668.24c0-32.27,22.96-52.05,46.82-52.05s42.28,20.46,42.28,47.73-.68,10.68-1.14,12.96h-59.32c2.73,14.32,12.5,20.91,25.68,20.91s14.32-2.27,21.37-6.59l9.77,17.73c-10.23,7.05-23.41,11.14-35.23,11.14-28.18,0-50.23-19.09-50.23-52.05v.23ZM1032.59,657.33c0-10.91-4.77-18.86-16.59-18.86s-17.27,6.14-19.32,18.86h35.91Z"/>
      <path class="cls-1" d="M1068.05,701.19l16.82-20.23c9.32,8.18,21.37,13.64,32.05,13.64s18.41-4.77,18.41-12.5-7.5-10.91-18.86-15.46l-17.05-7.27c-13.41-5.45-26.37-16.59-26.37-35.46s19.32-38.87,46.37-38.87,30.68,5.91,42.05,17.05l-14.77,18.64c-8.64-6.59-16.82-10.23-27.05-10.23s-16.59,4.32-16.59,11.59,8.64,10.91,20,15.46l16.59,6.82c15.91,6.36,25.91,17.05,25.91,35.46s-17.96,40.46-49.09,40.46-35-6.36-48.19-18.86l-.23-.23Z"/>
      <path class="cls-1" d="M1185.1,618.46h24.09l2.05,12.5h.68c8.41-7.96,18.41-15,31.82-15,21.59,0,30.68,15.23,30.68,40v61.6h-29.32v-57.73c0-14.32-3.86-18.64-12.27-18.64s-11.82,3.41-18.41,9.55v67.05h-29.32v-99.32h0Z"/>
      <path class="cls-1" d="M1295.11,690.28c0-20.91,16.59-32.27,55.91-36.37-.68-8.64-5-14.32-15.68-14.32s-16.59,3.41-26.37,8.86l-10.46-19.32c12.5-7.73,26.82-12.96,42.28-12.96,25.46,0,39.32,14.55,39.32,45v56.82h-24.09l-2.05-10.23h-.68c-8.41,7.27-17.73,12.5-28.87,12.5-18.18,0-29.55-13.18-29.55-30h.23ZM1351.02,688.92v-17.27c-20.91,2.73-27.73,8.86-27.73,16.36s4.32,9.55,11.36,9.55,11.14-3.18,16.36-8.41v-.23Z"/>
      <path class="cls-1" d="M1405.11,618.46h24.09l2.05,9.77h.68c7.73-7.05,17.96-12.27,28.18-12.27,24.09,0,38.64,19.77,38.64,50.46s-20.23,53.64-41.82,53.64-16.59-3.64-23.64-10.46l.91,15.68v29.09h-29.32v-136.15l.23.23ZM1468.75,666.87c0-17.73-5.45-26.82-17.27-26.82s-11.14,2.73-17.05,8.86v40.68c5.23,4.55,10.91,6.36,15.91,6.36,10.23,0,18.41-8.64,18.41-29.09h0Z"/>
    </g>
    <g>
      <path d="M734.16,786.65h8.64c7.73,0,12.5,2.5,12.5,9.55s-4.55,10-12.27,10h-6.59v14.77h-2.5v-34.55l.23.23ZM742.34,804.15c7.05,0,10.46-2.27,10.46-7.96s-3.41-7.5-10.68-7.5h-5.68v15.68h5.91v-.23Z"/>
      <path d="M762.57,795.97h2.05v4.77h.45c1.59-3.18,4.09-5.23,7.05-5.23s1.59,0,2.5.45l-.45,2.05c-.91-.23-1.36-.45-2.27-.45-2.27,0-5,1.82-6.82,6.36v17.05h-2.27v-25h-.23Z"/>
      <path d="M776.44,808.7c0-8.41,5.23-13.18,11.36-13.18s11.36,4.77,11.36,13.18-5.23,13.18-11.36,13.18-11.36-4.77-11.36-13.18ZM796.66,808.7c0-6.59-3.86-11.14-8.86-11.14s-8.86,4.55-8.86,11.14,3.86,11.14,8.86,11.14,8.86-4.55,8.86-11.14Z"/>
      <path d="M800.07,832.57l.45-1.82c.68,0,1.59.45,2.73.45,2.73,0,3.41-2.27,3.41-5.45v-29.55h2.27v29.77c0,5-1.82,7.27-5.68,7.27s-2.5-.23-3.18-.68h0ZM805.76,787.79c0-1.36.91-2.05,2.05-2.05s2.05.68,2.05,2.05-.91,2.05-2.05,2.05-2.05-.91-2.05-2.05Z"/>
      <path d="M816.44,808.7c0-8.18,5.23-13.18,10.91-13.18s9.55,4.32,9.55,11.59,0,1.36,0,1.82h-17.96c0,6.36,3.86,10.91,9.55,10.91s4.77-.91,6.82-2.27l.91,1.82c-2.05,1.14-4.32,2.5-7.96,2.5-6.36,0-11.59-5-11.59-13.18h-.23ZM834.85,806.88c0-6.36-2.95-9.55-7.5-9.55s-8.18,3.64-8.64,9.55h16.14Z"/>
      <path d="M841.67,808.7c0-8.41,5.45-13.18,11.36-13.18s5.68,1.59,7.27,3.18l-1.36,1.59c-1.59-1.59-3.41-2.73-5.91-2.73-5.23,0-9.09,4.55-9.09,11.14s3.64,11.14,9.09,11.14,5-1.36,6.82-2.95l1.14,1.59c-2.05,1.82-4.77,3.41-7.96,3.41-6.59,0-11.36-4.77-11.36-13.18h0Z"/>
      <path d="M867.35,814.15v-16.14h-3.86v-1.82h3.86l.23-7.5h2.05v7.27h7.27v2.05h-7.27v16.36c0,3.18.91,5.45,4.32,5.45s2.27-.45,3.18-.68l.68,1.82c-1.36.45-2.95.91-4.09.91-4.77,0-6.14-2.95-6.14-7.5l-.23-.23Z"/>
      <path d="M893.72,786.65h7.96c10.68,0,15.68,6.59,15.68,17.05s-5,17.27-15.68,17.27h-7.96v-34.55.23ZM901.44,819.16c9.32,0,13.41-6.36,13.41-15.23s-4.09-15-13.41-15h-5.23v30.46h5.23v-.23Z"/>
      <path d="M923.04,808.7c0-8.41,5.23-13.18,11.36-13.18s11.36,4.77,11.36,13.18-5.23,13.18-11.36,13.18-11.36-4.77-11.36-13.18ZM943.04,808.7c0-6.59-3.86-11.14-8.86-11.14s-8.86,4.55-8.86,11.14,3.86,11.14,8.86,11.14,8.86-4.55,8.86-11.14Z"/>
      <path d="M950.99,808.7c0-8.41,5.45-13.18,11.36-13.18s5.68,1.59,7.27,3.18l-1.36,1.59c-1.59-1.59-3.41-2.73-5.91-2.73-5.23,0-9.09,4.55-9.09,11.14s3.64,11.14,9.09,11.14,5-1.36,6.82-2.95l1.14,1.59c-2.05,1.82-4.77,3.41-7.96,3.41-6.59,0-11.36-4.77-11.36-13.18h0Z"/>
      <path d="M975.99,812.11v-16.14h2.27v15.68c0,5.23,1.59,7.96,5.68,7.96s5.23-1.59,8.18-5.23v-18.41h2.27v25h-2.05v-4.09h-.45c-2.5,2.95-5,4.77-8.41,4.77-5.23,0-7.5-3.18-7.5-9.55Z"/>
      <path d="M1004.18,795.97h2.05v3.86h.45c2.27-2.5,5.23-4.55,7.96-4.55,4.09,0,6.14,2.05,6.82,5.23,2.95-3.18,5.68-5.23,8.41-5.23,5,0,7.5,3.18,7.5,9.55v16.14h-2.27v-15.68c0-5.23-1.82-7.96-5.68-7.96s-4.77,1.59-7.5,4.77v18.86h-2.27v-15.68c0-5.23-1.82-7.96-5.68-7.96s-4.77,1.59-7.5,4.77v18.86h-2.27v-25h0Z"/>
      <path d="M1044.41,808.7c0-8.18,5.23-13.18,10.91-13.18s9.55,4.32,9.55,11.59,0,1.36,0,1.82h-17.96c0,6.36,3.86,10.91,9.55,10.91s4.77-.91,6.82-2.27l.91,1.82c-2.05,1.14-4.32,2.5-7.96,2.5-6.36,0-11.59-5-11.59-13.18h-.23ZM1062.82,806.88c0-6.36-2.95-9.55-7.5-9.55s-8.18,3.64-8.64,9.55h16.14Z"/>
      <path d="M1071.91,795.97h2.05v3.86h.45c2.5-2.5,5.23-4.55,8.64-4.55,5.23,0,7.5,3.18,7.5,9.55v16.14h-2.27v-15.68c0-5.23-1.59-7.96-5.68-7.96s-5.23,1.59-8.18,4.77v18.86h-2.27v-25h-.23Z"/>
      <path d="M1100.32,814.15v-16.14h-3.86v-1.82h3.86l.23-7.5h2.05v7.27h7.27v2.05h-7.27v16.36c0,3.18.91,5.45,4.32,5.45s2.27-.45,3.18-.68l.68,1.82c-1.36.45-2.95.91-4.09.91-4.77,0-6.14-2.95-6.14-7.5l-.23-.23Z"/>
      <path d="M1113.05,814.84c0-5.68,5-8.18,16.14-9.55,0-3.86-.91-7.96-5.91-7.96s-6.36,1.59-7.96,2.95l-1.14-1.82c1.82-1.36,5.23-3.18,9.32-3.18,5.91,0,7.96,4.32,7.96,9.77v16.14h-2.05v-3.18h-.45c-2.5,2.05-5.68,3.86-8.86,3.86s-7.27-2.27-7.27-6.82l.23-.23ZM1129.19,815.75v-8.64c-10.23,1.14-13.86,3.64-13.86,7.5s2.5,5,5.23,5,5.45-1.36,8.41-4.09l.23.23Z"/>
      <path d="M1140.55,814.15v-16.14h-3.86v-1.82h3.86l.23-7.5h2.05v7.27h7.27v2.05h-7.27v16.36c0,3.18.91,5.45,4.32,5.45s2.27-.45,3.18-.68l.68,1.82c-1.36.45-2.95.91-4.09.91-4.77,0-6.14-2.95-6.14-7.5l-.23-.23Z"/>
      <path d="M1155.32,787.79c0-1.36.91-2.05,2.05-2.05s2.05.68,2.05,2.05-.91,2.05-2.05,2.05-2.05-.91-2.05-2.05ZM1156.23,795.97h2.27v25h-2.27v-25Z"/>
      <path d="M1166.01,808.7c0-8.41,5.23-13.18,11.36-13.18s11.36,4.77,11.36,13.18-5.23,13.18-11.36,13.18-11.36-4.77-11.36-13.18ZM1186.24,808.7c0-6.59-3.86-11.14-8.86-11.14s-8.86,4.55-8.86,11.14,3.86,11.14,8.86,11.14,8.86-4.55,8.86-11.14Z"/>
      <path d="M1196.24,795.97h2.05v3.86h.45c2.5-2.5,5.23-4.55,8.64-4.55,5.23,0,7.5,3.18,7.5,9.55v16.14h-2.27v-15.68c0-5.23-1.59-7.96-5.68-7.96s-5.23,1.59-8.18,4.77v18.86h-2.27v-25h-.23Z"/>
      <path d="M1234.42,795.97h2.05v3.86h.45c2.27-2.5,5.23-4.55,7.96-4.55,4.09,0,6.14,2.05,6.82,5.23,2.95-3.18,5.68-5.23,8.41-5.23,5,0,7.5,3.18,7.5,9.55v16.14h-2.27v-15.68c0-5.23-1.82-7.96-5.68-7.96s-4.77,1.59-7.5,4.77v18.86h-2.27v-15.68c0-5.23-1.82-7.96-5.68-7.96s-4.77,1.59-7.5,4.77v18.86h-2.27v-25h0Z"/>
      <path d="M1275.11,814.84c0-5.68,5-8.18,16.14-9.55,0-3.86-.91-7.96-5.91-7.96s-6.36,1.59-7.96,2.95l-1.14-1.82c1.82-1.36,5.23-3.18,9.32-3.18,5.91,0,7.96,4.32,7.96,9.77v16.14h-2.05v-3.18h-.45c-2.5,2.05-5.68,3.86-8.86,3.86s-7.27-2.27-7.27-6.82l.23-.23ZM1291.24,815.75v-8.64c-10.23,1.14-13.86,3.64-13.86,7.5s2.5,5,5.23,5,5.45-1.36,8.41-4.09l.23.23Z"/>
      <path d="M1300.33,808.7c0-8.18,5.23-13.18,11.14-13.18s5,1.14,7.5,3.18v-15h2.27v37.5h-2.05v-3.18h-.45c-2.05,2.05-4.77,3.86-8.18,3.86-6.36,0-10.46-4.77-10.46-13.18h.23ZM1318.97,815.52v-14.77c-2.73-2.27-4.77-3.18-7.27-3.18-5,0-8.86,4.77-8.86,11.14s2.95,11.14,8.18,11.14,5.23-1.36,7.96-4.09v-.23Z"/>
      <path d="M1328.75,808.7c0-8.18,5.23-13.18,10.91-13.18s9.55,4.32,9.55,11.59,0,1.36,0,1.82h-17.96c0,6.36,3.86,10.91,9.55,10.91s4.77-.91,6.82-2.27l.91,1.82c-2.05,1.14-4.32,2.5-7.96,2.5-6.36,0-11.59-5-11.59-13.18h-.23ZM1347.16,806.88c0-6.36-2.95-9.55-7.5-9.55s-8.18,3.64-8.64,9.55h16.14Z"/>
      <path d="M1363.52,818.25l1.36-1.59c2.05,1.82,4.32,3.18,7.96,3.18s5.91-2.27,5.91-5-3.18-4.55-6.14-5.68c-3.86-1.36-7.96-2.95-7.96-7.27s2.95-6.59,8.18-6.59,5.45,1.14,7.27,2.5l-1.14,1.59c-1.59-1.36-3.41-2.27-5.91-2.27-3.86,0-5.68,2.27-5.68,4.55s2.95,3.86,5.91,5c3.86,1.59,8.18,2.73,8.18,7.73s-2.95,7.05-8.41,7.05-7.05-1.59-9.09-3.41l-.45.23Z"/>
      <path d="M1386.93,787.79c0-1.36.91-2.05,2.05-2.05s2.05.68,2.05,2.05-.91,2.05-2.05,2.05-2.05-.91-2.05-2.05ZM1387.84,795.97h2.27v25h-2.27v-25Z"/>
      <path d="M1399.89,795.97h2.05v3.86h.45c2.27-2.5,5.23-4.55,7.96-4.55,4.09,0,6.14,2.05,6.82,5.23,2.95-3.18,5.68-5.23,8.41-5.23,5,0,7.5,3.18,7.5,9.55v16.14h-2.27v-15.68c0-5.23-1.82-7.96-5.68-7.96s-4.77,1.59-7.5,4.77v18.86h-2.27v-15.68c0-5.23-1.82-7.96-5.68-7.96s-4.77,1.59-7.5,4.77v18.86h-2.27v-25h0Z"/>
      <path d="M1442.16,795.97h2.05v3.18h.45c2.5-2.05,5.45-3.86,8.41-3.86,6.82,0,10,5,10,12.73s-5.23,13.64-11.14,13.64-5-1.14-7.5-3.18v13.64h-2.27v-36.37.23ZM1460.8,808.25c0-6.14-2.27-10.68-7.96-10.68s-5.23,1.36-8.18,4.09v14.77c2.73,2.27,5.45,3.18,7.5,3.18,5,0,8.86-4.77,8.86-11.59l-.23.23Z"/>
      <path d="M1470.57,817.79v-34.32h2.27v34.55c0,1.14.45,1.59,1.14,1.59h.91l.45,1.82c-.45,0-.91.23-1.59.23-2.05,0-2.95-1.14-2.95-4.09l-.23.23Z"/>
      <path d="M1481.03,808.7c0-8.18,5.23-13.18,10.91-13.18s9.55,4.32,9.55,11.59,0,1.36,0,1.82h-17.96c0,6.36,3.86,10.91,9.55,10.91s4.77-.91,6.82-2.27l.91,1.82c-2.05,1.14-4.32,2.5-7.96,2.5-6.36,0-11.59-5-11.59-13.18h-.23ZM1499.21,806.88c0-6.36-2.95-9.55-7.5-9.55s-8.18,3.64-8.64,9.55h16.14Z"/>
    </g>
  </g>
</svg>